<svg width="79" height="13" viewBox="0 0 79 13" fill="none" xmlns="http://www.w3.org/2000/svg">
  <rect opacity="0.35" x="51.4333" y="0.5" width="24" height="12" rx="3" stroke="black"/>
  <path opacity="0.4" d="M76.9333 4.66667V8.66667C77.7381 8.32789 78.2614 7.5398 78.2614 6.66667C78.2614 5.79353 77.7381 5.00544 76.9333 4.66667Z" fill="black"/>
  <rect x="52.9333" y="2" width="21" height="9" rx="1.33333" fill="black"/>
  <path fill-rule="evenodd" clip-rule="evenodd" d="M35.1006 3.06735C37.5671 3.06745 39.9394 3.96498 41.727 5.57443C41.8616 5.69869 42.0767 5.69712 42.2093 5.57092L43.4961 4.3411C43.5632 4.27709 43.6006 4.19038 43.6001 4.10017C43.5995 4.00996 43.561 3.92367 43.4931 3.86041C38.8012 -0.397806 31.3992 -0.397806 26.7073 3.86041C26.6393 3.92363 26.6007 4.00988 26.6001 4.1001C26.5995 4.19031 26.6368 4.27704 26.7039 4.3411L27.9911 5.57092C28.1236 5.69731 28.3389 5.69888 28.4734 5.57443C30.2613 3.96488 32.6338 3.06735 35.1006 3.06735ZM35.0988 7.17524C36.4449 7.17516 37.743 7.67327 38.7408 8.57279C38.8757 8.70045 39.0883 8.69768 39.2199 8.56655L40.4965 7.28238C40.5637 7.21502 40.601 7.12364 40.6001 7.02869C40.5991 6.93373 40.5599 6.84313 40.4914 6.77715C37.4528 3.96328 32.7473 3.96328 29.7088 6.77715C29.6402 6.84313 29.601 6.93378 29.6001 7.02876C29.5992 7.12375 29.6366 7.21512 29.704 7.28238L30.9803 8.56655C31.1119 8.69768 31.3244 8.70045 31.4594 8.57279C32.4565 7.67386 33.7536 7.1758 35.0988 7.17524ZM37.6 9.8944C37.6019 9.99694 37.5652 10.0958 37.4984 10.1676L35.3398 12.557C35.2765 12.6272 35.1902 12.6667 35.1002 12.6667C35.0102 12.6667 34.9239 12.6272 34.8606 12.557L32.7016 10.1676C32.6349 10.0958 32.5982 9.99686 32.6002 9.89431C32.6022 9.79177 32.6426 9.69466 32.712 9.62592C34.0906 8.34702 36.1097 8.34702 37.4884 9.62592C37.5577 9.69472 37.5981 9.79185 37.6 9.8944Z" fill="black"/>
  <path fill-rule="evenodd" clip-rule="evenodd" d="M19.2 1.79175C19.2 1.17043 18.7224 0.666748 18.1333 0.666748H17.0667C16.4776 0.666748 16 1.17043 16 1.79175V11.5417C16 12.1631 16.4776 12.6667 17.0667 12.6667H18.1333C18.7224 12.6667 19.2 12.1631 19.2 11.5417V1.79175ZM11.7667 3.06675H12.8333C13.4224 3.06675 13.9 3.58252 13.9 4.21875V11.5147C13.9 12.151 13.4224 12.6667 12.8333 12.6667H11.7667C11.1776 12.6667 10.7 12.151 10.7 11.5147V4.21875C10.7 3.58252 11.1776 3.06675 11.7667 3.06675ZM7.43333 5.66675H6.36667C5.77756 5.66675 5.3 6.18908 5.3 6.83341V11.5001C5.3 12.1444 5.77756 12.6667 6.36667 12.6667H7.43333C8.02244 12.6667 8.5 12.1444 8.5 11.5001V6.83341C8.5 6.18908 8.02244 5.66675 7.43333 5.66675ZM2.13333 8.06675H1.06667C0.477563 8.06675 0 8.58162 0 9.21675V11.5167C0 12.1519 0.477563 12.6667 1.06667 12.6667H2.13333C2.72244 12.6667 3.2 12.1519 3.2 11.5167V9.21675C3.2 8.58162 2.72244 8.06675 2.13333 8.06675Z" fill="black"/>
</svg>
