<svg width="50" height="14" viewBox="0 0 50 14" fill="none" xmlns="http://www.w3.org/2000/svg">
  <path d="M36.3722 5.48652C36.7266 5.10328 36.7295 4.50844 36.3477 4.15255C35.3799 3.25059 34.284 2.51985 33.1002 1.98957C31.6417 1.33625 30.0786 1 28.5 1C26.9214 1 25.3583 1.33626 23.8998 1.98957C22.716 2.51985 21.6201 3.25059 20.6523 4.15255C20.2705 4.50844 20.2734 5.10329 20.6278 5.48653L28.5 14L36.3722 5.48652Z" fill="#1C1B14"/>
  <path d="M14 13V2.41421C14 1.52331 12.9229 1.07714 12.2929 1.7071L1.70711 12.2929C1.07714 12.9229 1.52331 14 2.41421 14H13C13.5523 14 14 13.5523 14 13Z" fill="#1C1B14"/>
  <path d="M49 2C49.5523 2 50 2.44772 50 3V13C50 13.5523 49.5523 14 49 14H43C42.4477 14 42 13.5523 42 13V3C42 2.44772 42.4477 2 43 2H44C44 1.44772 44.4477 1 45 1H47C47.5523 1 48 1.44772 48 2H49Z" fill="#1C1B14"/>
</svg>
